<?xml version="1.0" encoding="UTF-8"?><svg id="Layer_2" xmlns="http://www.w3.org/2000/svg" xmlns:xlink="http://www.w3.org/1999/xlink" viewBox="0 0 108.79 97.71"><defs><style>.cls-1{fill:url(#linear-gradient-2);}.cls-2{fill:url(#linear-gradient);}</style><linearGradient id="linear-gradient" x1="0" y1="47.56" x2="94.31" y2="47.56" gradientTransform="matrix(1, 0, 0, 1, 0, 0)" gradientUnits="userSpaceOnUse"><stop offset="0" stop-color="#1a91f0"/><stop offset="1" stop-color="#1a90c4"/></linearGradient><linearGradient id="linear-gradient-2" x1="3.98" y1="50.52" x2="108.79" y2="50.52" xlink:href="#linear-gradient"/></defs><g id="Layer_1-2"><g><path class="cls-2" d="M2.34,91.4c1.87-4.73,15.56-21.65,15.56-21.65,0,0,.53-16.6,8.83-23.33,0,0-.81,6.16-.41,7.14,0,0,5.02-24.27,32.13-40.66,0,0-3.7,8.85-3.87,10.54,0,0,16.94-21.58,39.73-22.48-1.03-.61-2.23-.97-3.51-.97H6.92C3.1,0,0,3.1,0,6.92V90.79c0,1.64,.57,3.14,1.52,4.32,.05-1.1,.27-2.35,.82-3.72Z"/><path class="cls-1" d="M100.53,12.75c-3.19,4.82-10.84,14.94-20.68,17.76-9.84,2.83-13.56,4.07-13.56,4.07,0,0,6.63-.01,17.8-2.67,0,0-12.93,22.61-36.5,21.58,0,0-2.19,1.97,18.2-1.01,0,0-11.28,13.48-23.99,15.93-12.71,2.45-14.26,2.35-16.84,4.13,0,0,22.47-36.16,50.02-52.52,0,0-28.96,7.76-62.13,66.9l-3.26,6.09s-2.97,.84-5.61,4.04c.89,.42,1.89,.66,2.94,.66H90.79c3.82,0,6.92-3.1,6.92-6.92V25.85s10.29-8.29,11.08-22.53c0,0-5.07,4.61-8.26,9.43Z"/></g></g></svg>